<?xml version="1.0" encoding="utf-8" standalone="no"?>
<!DOCTYPE svg PUBLIC "-//W3C//DTD SVG 1.1//EN"
  "http://www.w3.org/Graphics/SVG/1.1/DTD/svg11.dtd">
<svg xmlns:xlink="http://www.w3.org/1999/xlink" width="443.869063pt" height="304.211875pt" viewBox="0 0 443.869063 304.211875" xmlns="http://www.w3.org/2000/svg" version="1.1">
 <metadata>
  <rdf:RDF xmlns:dc="http://purl.org/dc/elements/1.1/" xmlns:cc="http://creativecommons.org/ns#" xmlns:rdf="http://www.w3.org/1999/02/22-rdf-syntax-ns#">
   <cc:Work>
    <dc:type rdf:resource="http://purl.org/dc/dcmitype/StillImage"/>
    <dc:date>2022-01-01T05:00:00+00:00</dc:date>
    <dc:format>image/svg+xml</dc:format>
    <dc:creator>
     <cc:Agent>
      <dc:title>Matplotlib v3.10.5, https://matplotlib.org/</dc:title>
     </cc:Agent>
    </dc:creator>
   </cc:Work>
  </rdf:RDF>
 </metadata>
 <defs>
  <style type="text/css">*{stroke-linejoin: round; stroke-linecap: butt}</style>
 </defs>
 <g id="figure_1">
  <g id="patch_1">
   <path d="M 0 304.211875 
L 443.869063 304.211875 
L 443.869063 0 
L 0 0 
z
" style="fill: #ffffff"/>
  </g>
  <g id="axes_1">
   <g id="patch_2">
    <path d="M 46.069063 278.825625 
L 436.669062 278.825625 
L 436.669062 29.345625 
L 46.069063 29.345625 
z
" style="fill: #ffffff"/>
   </g>
   <g id="patch_3">
    <path d="M 63.823608 278.825625 
L 133.109639 278.825625 
L 133.109639 88.649625 
L 63.823608 88.649625 
z
" clip-path="url(#p0d0930e899)" style="fill: #ff9400; stroke: #ffffff; stroke-width: 0.5; stroke-linejoin: miter"/>
   </g>
   <g id="patch_4">
    <path d="M 280.342455 278.825625 
L 349.628486 278.825625 
L 349.628486 139.049625 
L 280.342455 139.049625 
z
" clip-path="url(#p0d0930e899)" style="fill: #ff9400; stroke: #ffffff; stroke-width: 0.5; stroke-linejoin: miter"/>
   </g>
   <g id="patch_5">
    <path d="M 133.109639 278.825625 
L 202.39567 278.825625 
L 202.39567 116.201625 
L 133.109639 116.201625 
z
" clip-path="url(#p0d0930e899)" style="fill: #0279ee; stroke: #ffffff; stroke-width: 0.5; stroke-linejoin: miter"/>
   </g>
   <g id="patch_6">
    <path d="M 349.628486 278.825625 
L 418.914517 278.825625 
L 418.914517 79.241625 
L 349.628486 79.241625 
z
" clip-path="url(#p0d0930e899)" style="fill: #0279ee; stroke: #ffffff; stroke-width: 0.5; stroke-linejoin: miter"/>
   </g>
   <g id="patch_7">
    <path d="M 63.823608 278.825625 
L 133.109639 278.825625 
L 133.109639 262.025625 
L 63.823608 262.025625 
z
" clip-path="url(#p0d0930e899)" style="fill: url(#h7d2d7c5982); opacity: 0"/>
   </g>
   <g id="patch_8">
    <path d="M 280.342455 278.825625 
L 349.628486 278.825625 
L 349.628486 278.825625 
L 280.342455 278.825625 
z
" clip-path="url(#p0d0930e899)" style="fill: url(#h7d2d7c5982); opacity: 0"/>
   </g>
   <g id="patch_9">
    <path d="M 63.823608 278.825625 
L 133.109639 278.825625 
L 133.109639 262.025625 
L 63.823608 262.025625 
z
" clip-path="url(#p0d0930e899)" style="fill: url(#he8f2b43722); stroke: #000000; stroke-width: 0.8; stroke-linejoin: miter"/>
   </g>
   <g id="patch_10">
    <path d="M 280.342455 278.825625 
L 349.628486 278.825625 
L 349.628486 278.825625 
L 280.342455 278.825625 
z
" clip-path="url(#p0d0930e899)" style="fill: url(#he8f2b43722); stroke: #000000; stroke-width: 0.8; stroke-linejoin: miter"/>
   </g>
   <g id="matplotlib.axis_1">
    <g id="xtick_1">
     <g id="line2d_1">
      <defs>
       <path id="m39a2a39982" d="M 0 0 
L 0 3.5 
" style="stroke: #000000; stroke-width: 0.8"/>
      </defs>
      <g>
       <use xlink:href="#m39a2a39982" x="133.109639" y="278.825625" style="stroke: #000000; stroke-width: 0.8"/>
      </g>
     </g>
     <g id="text_1">
      <text style="font-size: 12px; font-family: 'Liberation Sans', 'Arimo', 'DejaVu Sans'; text-anchor: middle" x="133.109639" y="294.521875" transform="rotate(-0 133.109639 294.521875)">Liver / Immune</text>
     </g>
    </g>
    <g id="xtick_2">
     <g id="line2d_2">
      <g>
       <use xlink:href="#m39a2a39982" x="349.628486" y="278.825625" style="stroke: #000000; stroke-width: 0.8"/>
      </g>
     </g>
     <g id="text_2">
      <text style="font-size: 12px; font-family: 'Liberation Sans', 'Arimo', 'DejaVu Sans'; text-anchor: middle" x="349.628486" y="294.521875" transform="rotate(-0 349.628486 294.521875)">Brain</text>
     </g>
    </g>
   </g>
   <g id="matplotlib.axis_2">
    <g id="ytick_1">
     <g id="line2d_3">
      <defs>
       <path id="med1258ccf1" d="M 0 0 
L -3.5 0 
" style="stroke: #000000; stroke-width: 0.8"/>
      </defs>
      <g>
       <use xlink:href="#med1258ccf1" x="46.069063" y="278.825625" style="stroke: #000000; stroke-width: 0.8"/>
      </g>
     </g>
     <g id="text_3">
      <text style="font-size: 10px; font-family: 'Liberation Sans', 'Arimo', 'DejaVu Sans'; text-anchor: end" x="39.069063" y="282.449063" transform="rotate(-0 39.069063 282.449063)">0</text>
     </g>
    </g>
    <g id="ytick_2">
     <g id="line2d_4">
      <g>
       <use xlink:href="#med1258ccf1" x="46.069063" y="245.225625" style="stroke: #000000; stroke-width: 0.8"/>
      </g>
     </g>
     <g id="text_4">
      <text style="font-size: 10px; font-family: 'Liberation Sans', 'Arimo', 'DejaVu Sans'; text-anchor: end" x="39.069063" y="248.849063" transform="rotate(-0 39.069063 248.849063)">50</text>
     </g>
    </g>
    <g id="ytick_3">
     <g id="line2d_5">
      <g>
       <use xlink:href="#med1258ccf1" x="46.069063" y="211.625625" style="stroke: #000000; stroke-width: 0.8"/>
      </g>
     </g>
     <g id="text_5">
      <text style="font-size: 10px; font-family: 'Liberation Sans', 'Arimo', 'DejaVu Sans'; text-anchor: end" x="39.069063" y="215.249063" transform="rotate(-0 39.069063 215.249063)">100</text>
     </g>
    </g>
    <g id="ytick_4">
     <g id="line2d_6">
      <g>
       <use xlink:href="#med1258ccf1" x="46.069063" y="178.025625" style="stroke: #000000; stroke-width: 0.8"/>
      </g>
     </g>
     <g id="text_6">
      <text style="font-size: 10px; font-family: 'Liberation Sans', 'Arimo', 'DejaVu Sans'; text-anchor: end" x="39.069063" y="181.649063" transform="rotate(-0 39.069063 181.649063)">150</text>
     </g>
    </g>
    <g id="ytick_5">
     <g id="line2d_7">
      <g>
       <use xlink:href="#med1258ccf1" x="46.069063" y="144.425625" style="stroke: #000000; stroke-width: 0.8"/>
      </g>
     </g>
     <g id="text_7">
      <text style="font-size: 10px; font-family: 'Liberation Sans', 'Arimo', 'DejaVu Sans'; text-anchor: end" x="39.069063" y="148.049063" transform="rotate(-0 39.069063 148.049063)">200</text>
     </g>
    </g>
    <g id="ytick_6">
     <g id="line2d_8">
      <g>
       <use xlink:href="#med1258ccf1" x="46.069063" y="110.825625" style="stroke: #000000; stroke-width: 0.8"/>
      </g>
     </g>
     <g id="text_8">
      <text style="font-size: 10px; font-family: 'Liberation Sans', 'Arimo', 'DejaVu Sans'; text-anchor: end" x="39.069063" y="114.449062" transform="rotate(-0 39.069063 114.449062)">250</text>
     </g>
    </g>
    <g id="ytick_7">
     <g id="line2d_9">
      <g>
       <use xlink:href="#med1258ccf1" x="46.069063" y="77.225625" style="stroke: #000000; stroke-width: 0.8"/>
      </g>
     </g>
     <g id="text_9">
      <text style="font-size: 10px; font-family: 'Liberation Sans', 'Arimo', 'DejaVu Sans'; text-anchor: end" x="39.069063" y="80.849062" transform="rotate(-0 39.069063 80.849062)">300</text>
     </g>
    </g>
    <g id="ytick_8">
     <g id="line2d_10">
      <g>
       <use xlink:href="#med1258ccf1" x="46.069063" y="43.625625" style="stroke: #000000; stroke-width: 0.8"/>
      </g>
     </g>
     <g id="text_10">
      <text style="font-size: 10px; font-family: 'Liberation Sans', 'Arimo', 'DejaVu Sans'; text-anchor: end" x="39.069063" y="47.249063" transform="rotate(-0 39.069063 47.249063)">350</text>
     </g>
    </g>
    <g id="text_11">
     <text style="font-size: 12px; font-family: 'Liberation Sans', 'Arimo', 'DejaVu Sans'; text-anchor: middle" x="15.89625" y="154.085625" transform="rotate(-90 15.89625 154.085625)">Consensus Gene Count</text>
    </g>
   </g>
   <g id="patch_11">
    <path d="M 46.069063 278.825625 
L 46.069063 29.345625 
" style="fill: none; stroke: #000000; stroke-width: 0.8; stroke-linejoin: miter; stroke-linecap: square"/>
   </g>
   <g id="patch_12">
    <path d="M 46.069063 278.825625 
L 436.669063 278.825625 
" style="fill: none; stroke: #000000; stroke-width: 0.8; stroke-linejoin: miter; stroke-linecap: square"/>
   </g>
   <g id="text_12">
    <text style="font-weight: 700; font-size: 11px; font-family: 'Liberation Sans', 'Arimo', 'DejaVu Sans'; text-anchor: middle" x="98.466623" y="83.007125" transform="rotate(-0 98.466623 83.007125)">283</text>
   </g>
   <g id="text_13">
    <text style="font-weight: 700; font-size: 11px; font-family: 'Liberation Sans', 'Arimo', 'DejaVu Sans'; text-anchor: middle" x="314.98547" y="133.407125" transform="rotate(-0 314.98547 133.407125)">208</text>
   </g>
   <g id="text_14">
    <text style="font-weight: 700; font-size: 11px; font-family: 'Liberation Sans', 'Arimo', 'DejaVu Sans'; text-anchor: middle" x="167.752655" y="110.559125" transform="rotate(-0 167.752655 110.559125)">242</text>
   </g>
   <g id="text_15">
    <text style="font-weight: 700; font-size: 11px; font-family: 'Liberation Sans', 'Arimo', 'DejaVu Sans'; text-anchor: middle" x="384.271502" y="73.599125" transform="rotate(-0 384.271502 73.599125)">297</text>
   </g>
   <g id="text_16">
    <text style="font-size: 8px; font-family: 'Liberation Sans', 'Arimo', 'DejaVu Sans'; text-anchor: start; fill: #8a8378" x="53.881062" y="47.617125" transform="rotate(-0 53.881062 47.617125)">Hatched bars = core genes (|log2FC| &gt;= 0.5)</text>
   </g>
   <g id="text_17">
    <text style="font-weight: 700; font-size: 14px; font-family: 'Liberation Sans', 'Arimo', 'DejaVu Sans'; text-anchor: middle" x="241.369063" y="17.345625" transform="rotate(-0 241.369063 17.345625)">Spaceflight Consensus Transcriptomic Signatures</text>
   </g>
   <g id="legend_1">
    <g id="patch_13">
     <path d="M 332.408125 45.5925 
L 352.408125 45.5925 
L 352.408125 38.5925 
L 332.408125 38.5925 
z
" style="fill: #ff9400; stroke: #ffffff; stroke-width: 0.5; stroke-linejoin: miter"/>
    </g>
    <g id="text_18">
     <text style="font-size: 10px; font-family: 'Liberation Sans', 'Arimo', 'DejaVu Sans'; text-anchor: start" x="360.408125" y="45.5925" transform="rotate(-0 360.408125 45.5925)">Upregulated</text>
    </g>
    <g id="patch_14">
     <path d="M 332.408125 59.914375 
L 352.408125 59.914375 
L 352.408125 52.914375 
L 332.408125 52.914375 
z
" style="fill: #0279ee; stroke: #ffffff; stroke-width: 0.5; stroke-linejoin: miter"/>
    </g>
    <g id="text_19">
     <text style="font-size: 10px; font-family: 'Liberation Sans', 'Arimo', 'DejaVu Sans'; text-anchor: start" x="360.408125" y="59.914375" transform="rotate(-0 360.408125 59.914375)">Downregulated</text>
    </g>
   </g>
  </g>
 </g>
 <defs>
  <clipPath id="p0d0930e899">
   <rect x="46.069063" y="29.345625" width="390.6" height="249.48"/>
  </clipPath>
 </defs>
 <defs>
  <pattern id="h7d2d7c5982" patternUnits="userSpaceOnUse" x="0" y="0" width="72" height="72">
   <rect x="0" y="0" width="73" height="73" fill="none"/>
   <path d="M -36 36 
L 36 -36 
M -30 42 
L 42 -30 
M -24 48 
L 48 -24 
M -18 54 
L 54 -18 
M -12 60 
L 60 -12 
M -6 66 
L 66 -6 
M 0 72 
L 72 0 
M 6 78 
L 78 6 
M 12 84 
L 84 12 
M 18 90 
L 90 18 
M 24 96 
L 96 24 
M 30 102 
L 102 30 
M 36 108 
L 108 36 
" style="fill: #000000; stroke: #000000; stroke-width: 1.0; stroke-linecap: butt; stroke-linejoin: miter; stroke-opacity: 0.0"/>
  </pattern>
  <pattern id="he8f2b43722" patternUnits="userSpaceOnUse" x="0" y="0" width="72" height="72">
   <rect x="0" y="0" width="73" height="73" fill="none"/>
   <path d="M -36 36 
L 36 -36 
M -30 42 
L 42 -30 
M -24 48 
L 48 -24 
M -18 54 
L 54 -18 
M -12 60 
L 60 -12 
M -6 66 
L 66 -6 
M 0 72 
L 72 0 
M 6 78 
L 78 6 
M 12 84 
L 84 12 
M 18 90 
L 90 18 
M 24 96 
L 96 24 
M 30 102 
L 102 30 
M 36 108 
L 108 36 
" style="fill: #000000; stroke: #000000; stroke-width: 1.0; stroke-linecap: butt; stroke-linejoin: miter"/>
  </pattern>
 </defs>
</svg>
